<svg xmlns="http://www.w3.org/2000/svg" viewBox="0 0 1440 320"><path fill="#0099ff" fill-opacity="1" d="M0,288L30,245.3C60,203,120,117,180,90.7C240,64,300,96,360,96C420,96,480,64,540,64C600,64,660,96,720,106.7C780,117,840,107,900,85.3C960,64,1020,32,1080,37.3C1140,43,1200,85,1260,101.3C1320,117,1380,107,1410,101.3L1440,96L1440,320L1410,320C1380,320,1320,320,1260,320C1200,320,1140,320,1080,320C1020,320,960,320,900,320C840,320,780,320,720,320C660,320,600,320,540,320C480,320,420,320,360,320C300,320,240,320,180,320C120,320,60,320,30,320L0,320Z"></path></svg>